<svg width="1344" height="300" viewBox="0 0 1344 300" fill="none" xmlns="http://www.w3.org/2000/svg">
<g clip-path="url(#clip0_8_207)">
<path d="M1144.45 60.9267C1159.79 42.8172 1163.04 18.026 1163.04 18.026C1163.04 18.026 1188.98 14.9261 1207.99 0.400934H1279.73C1298.74 15.0003 1324.68 18.026 1324.68 18.026C1324.68 18.026 1327.95 42.7591 1343.27 60.8687V129.222C1327.95 147.317 1324.68 172.05 1324.68 172.05C1324.68 172.05 1298.74 175.149 1279.73 189.675H1207.99C1188.98 175.076 1163.04 172.05 1163.04 172.05C1163.04 172.05 1159.79 147.317 1144.45 129.222V97.3362V60.9267ZM1197.15 23.3567L1170.19 24.9141L1168.65 50.6014L1151.28 90.9325L1193.58 74.4249L1220.54 72.8824L1222.19 47.1938L1239.51 6.84907L1197.15 23.3567ZM1227.69 79.7124C1227.69 79.7124 1204.57 82.4871 1185.95 95.1188C1204.44 107.734 1227.69 110.51 1227.69 110.51C1227.69 110.51 1230.6 132.542 1243.86 150.299C1257.12 132.586 1260.03 110.555 1260.03 110.555C1260.03 110.555 1283.15 107.779 1301.77 95.1634C1283.28 82.5316 1260.03 79.7556 1260.03 79.7556C1260.03 79.7556 1257.12 57.7256 1243.86 39.9683C1230.6 57.6811 1227.69 79.7124 1227.69 79.7124ZM1319.15 50.6014L1317.6 24.9141L1290.64 23.3567L1248.31 6.84907L1265.64 47.1938L1267.26 72.8824L1294.22 74.4249L1336.55 90.9325L1319.15 50.6014ZM1290.57 166.836L1317.53 165.368L1319.07 139.68L1336.4 99.3335L1294.07 115.842L1267.11 117.399L1265.49 143.087L1248.16 183.418L1290.57 166.836ZM1168.57 139.607L1170.11 165.294L1197.08 166.763L1239.42 183.271L1222.19 143.014L1220.57 117.326L1193.61 115.768L1151.28 99.2606L1168.57 139.607Z" fill="url(#paint0_linear_8_207)"/>
<path d="M1144.45 250.2C1159.79 232.091 1163.04 207.299 1163.04 207.299C1163.04 207.299 1188.98 204.2 1207.99 189.674H1279.73C1298.74 204.273 1324.68 207.299 1324.68 207.299C1324.68 207.299 1327.95 232.032 1343.27 250.142V318.496C1327.95 336.59 1324.68 361.324 1324.68 361.324C1324.68 361.324 1298.74 364.423 1279.73 378.948H1207.99C1188.98 364.349 1163.04 361.324 1163.04 361.324C1163.04 361.324 1159.79 336.59 1144.45 318.496V286.61V250.2ZM1197.15 212.63L1170.19 214.187L1168.65 239.875L1151.28 280.206L1193.58 263.698L1220.54 262.156L1222.19 236.468L1239.51 196.122L1197.15 212.63ZM1227.69 268.985C1227.69 268.985 1204.57 271.761 1185.95 284.392C1204.44 297.008 1227.69 299.784 1227.69 299.784C1227.69 299.784 1230.6 321.815 1243.86 339.572C1257.12 321.859 1260.03 299.828 1260.03 299.828C1260.03 299.828 1283.15 297.052 1301.77 284.436C1283.28 271.805 1260.03 269.029 1260.03 269.029C1260.03 269.029 1257.12 246.999 1243.86 229.242C1230.6 246.955 1227.69 268.985 1227.69 268.985ZM1319.15 239.875L1317.6 214.187L1290.64 212.63L1248.31 196.122L1265.64 236.468L1267.26 262.156L1294.22 263.698L1336.55 280.206L1319.15 239.875ZM1290.57 356.11L1317.53 354.641L1319.07 328.953L1336.4 288.607L1294.07 305.116L1267.11 306.673L1265.49 332.36L1248.16 372.691L1290.57 356.11ZM1168.57 328.88L1170.11 354.567L1197.08 356.036L1239.42 372.545L1222.19 332.287L1220.57 306.599L1193.61 305.042L1151.28 288.534L1168.57 328.88Z" fill="url(#paint1_linear_8_207)"/>
<path d="M945.628 60.9267C960.965 42.8172 964.219 18.026 964.219 18.026C964.219 18.026 990.161 14.9261 1009.17 0.400934H1080.91C1099.92 15.0003 1125.86 18.026 1125.86 18.026C1125.86 18.026 1129.13 42.7591 1144.45 60.8687V97.3362V129.222C1129.13 147.317 1125.86 172.05 1125.86 172.05C1125.86 172.05 1099.92 175.149 1080.91 189.675H1009.17C990.161 175.076 964.219 172.05 964.219 172.05C964.219 172.05 960.965 147.317 945.628 129.222V97.3362V60.9267ZM998.332 23.3567L971.37 24.9141L969.829 50.6014L952.456 90.9325L994.755 74.4249L1021.72 72.8824L1023.37 47.1938L1040.69 6.84907L998.332 23.3567ZM1028.87 79.7124C1028.87 79.7124 1005.75 82.4871 987.125 95.1188C1005.62 107.734 1028.87 110.51 1028.87 110.51C1028.87 110.51 1031.78 132.542 1045.04 150.299C1058.3 132.586 1061.21 110.555 1061.21 110.555C1061.21 110.555 1084.33 107.779 1102.95 95.1634C1084.45 82.5316 1061.21 79.7556 1061.21 79.7556C1061.21 79.7556 1058.3 57.7256 1045.04 39.9683C1031.78 57.6811 1028.87 79.7124 1028.87 79.7124ZM1120.32 50.6014L1118.78 24.9141L1091.82 23.3567L1049.49 6.84907L1066.82 47.1938L1068.44 72.8824L1095.4 74.4249L1137.73 90.9325L1120.32 50.6014ZM1091.75 166.836L1118.71 165.368L1120.25 139.68L1137.57 99.3335L1095.24 115.842L1068.28 117.399L1066.67 143.087L1049.34 183.418L1091.75 166.836ZM969.752 139.607L971.294 165.294L998.254 166.763L1040.6 183.271L1023.37 143.014L1021.75 117.326L994.786 115.768L952.456 99.2606L969.752 139.607Z" fill="url(#paint2_linear_8_207)"/>
<path d="M945.628 250.2C960.965 232.091 964.219 207.299 964.219 207.299C964.219 207.299 990.161 204.2 1009.17 189.674H1080.91C1099.92 204.273 1125.86 207.299 1125.86 207.299C1125.86 207.299 1129.13 232.032 1144.45 250.142V286.61V318.496C1129.13 336.59 1125.86 361.324 1125.86 361.324C1125.86 361.324 1099.92 364.423 1080.91 378.948H1009.17C990.161 364.349 964.219 361.324 964.219 361.324C964.219 361.324 960.965 336.59 945.628 318.496V286.61V250.2ZM998.332 212.63L971.37 214.187L969.829 239.875L952.456 280.206L994.755 263.698L1021.72 262.156L1023.37 236.468L1040.69 196.122L998.332 212.63ZM1028.87 268.985C1028.87 268.985 1005.75 271.761 987.125 284.392C1005.62 297.008 1028.87 299.784 1028.87 299.784C1028.87 299.784 1031.78 321.815 1045.04 339.572C1058.3 321.859 1061.21 299.828 1061.21 299.828C1061.21 299.828 1084.33 297.052 1102.95 284.436C1084.45 271.805 1061.21 269.029 1061.21 269.029C1061.21 269.029 1058.3 246.999 1045.04 229.242C1031.78 246.955 1028.87 268.985 1028.87 268.985ZM1120.32 239.875L1118.78 214.187L1091.82 212.63L1049.49 196.122L1066.82 236.468L1068.44 262.156L1095.4 263.698L1137.73 280.206L1120.32 239.875ZM1091.75 356.11L1118.71 354.641L1120.25 328.953L1137.57 288.607L1095.24 305.116L1068.28 306.673L1066.67 332.36L1049.34 372.691L1091.75 356.11ZM969.752 328.88L971.294 354.567L998.254 356.036L1040.6 372.545L1023.37 332.287L1021.75 306.599L994.786 305.042L952.456 288.534L969.752 328.88Z" fill="url(#paint3_linear_8_207)"/>
<path d="M746.807 60.9267C762.144 42.8172 765.398 18.026 765.398 18.026C765.398 18.026 791.34 14.9261 810.347 0.400934H882.087C901.095 15.0003 927.037 18.026 927.037 18.026C927.037 18.026 930.306 42.7591 945.628 60.8687V97.3362V129.222C930.306 147.317 927.037 172.05 927.037 172.05C927.037 172.05 901.095 175.149 882.087 189.675H810.347C791.34 175.076 765.398 172.05 765.398 172.05C765.398 172.05 762.144 147.317 746.807 129.222V97.3362V60.9267ZM799.511 23.3567L772.549 24.9141L771.008 50.6014L753.635 90.9325L795.934 74.4249L822.895 72.8824L824.545 47.1938L841.87 6.84907L799.511 23.3567ZM830.047 79.7124C830.047 79.7124 806.925 82.4871 788.304 95.1188C806.802 107.734 830.047 110.51 830.047 110.51C830.047 110.51 832.96 132.542 846.218 150.299C859.474 132.586 862.388 110.555 862.388 110.555C862.388 110.555 885.51 107.779 904.131 95.1634C885.633 82.5316 862.388 79.7556 862.388 79.7556C862.388 79.7556 859.474 57.7256 846.218 39.9683C832.96 57.6811 830.047 79.7124 830.047 79.7124ZM921.504 50.6014L919.962 24.9141L893.002 23.3567L850.672 6.84907L867.998 47.1938L869.618 72.8824L896.578 74.4249L938.907 90.9325L921.504 50.6014ZM892.924 166.836L919.886 165.368L921.427 139.68L938.753 99.3335L896.423 115.842L869.463 117.399L867.845 143.087L850.518 183.418L892.924 166.836ZM770.931 139.607L772.472 165.294L799.432 166.763L841.778 183.271L824.545 143.014L822.925 117.326L795.965 115.768L753.635 99.2606L770.931 139.607Z" fill="url(#paint4_linear_8_207)"/>
<path d="M746.807 250.2C762.144 232.091 765.398 207.299 765.398 207.299C765.398 207.299 791.34 204.2 810.347 189.674H882.087C901.095 204.273 927.037 207.299 927.037 207.299C927.037 207.299 930.306 232.032 945.628 250.142V286.61V318.496C930.306 336.59 927.037 361.324 927.037 361.324C927.037 361.324 901.095 364.423 882.087 378.948H810.347C791.34 364.349 765.398 361.324 765.398 361.324C765.398 361.324 762.144 336.59 746.807 318.496V286.61V250.2ZM799.511 212.63L772.549 214.187L771.008 239.875L753.635 280.206L795.934 263.698L822.895 262.156L824.545 236.468L841.87 196.122L799.511 212.63ZM830.047 268.985C830.047 268.985 806.925 271.761 788.304 284.392C806.802 297.008 830.047 299.784 830.047 299.784C830.047 299.784 832.96 321.815 846.218 339.572C859.474 321.859 862.388 299.828 862.388 299.828C862.388 299.828 885.51 297.052 904.131 284.436C885.633 271.805 862.388 269.029 862.388 269.029C862.388 269.029 859.474 246.999 846.218 229.242C832.96 246.955 830.047 268.985 830.047 268.985ZM921.504 239.875L919.962 214.187L893.002 212.63L850.672 196.122L867.998 236.468L869.618 262.156L896.578 263.698L938.907 280.206L921.504 239.875ZM892.924 356.11L919.886 354.641L921.427 328.953L938.753 288.607L896.423 305.116L869.463 306.673L867.845 332.36L850.518 372.691L892.924 356.11ZM770.931 328.88L772.472 354.567L799.432 356.036L841.778 372.545L824.545 332.287L822.925 306.599L795.965 305.042L753.635 288.534L770.931 328.88Z" fill="url(#paint5_linear_8_207)"/>
<path d="M547.985 60.9267C563.323 42.8172 566.576 18.026 566.576 18.026C566.576 18.026 592.519 14.9261 611.526 0.400934H683.266C702.273 15.0003 728.216 18.026 728.216 18.026C728.216 18.026 731.485 42.7591 746.807 60.8687V97.3362V129.222C731.485 147.317 728.216 172.05 728.216 172.05C728.216 172.05 702.273 175.149 683.266 189.675H611.526C592.519 175.076 566.576 172.05 566.576 172.05C566.576 172.05 563.323 147.317 547.985 129.222V97.3362V60.9267ZM600.689 23.3567L573.728 24.9141L572.186 50.6014L554.813 90.9325L597.112 74.4249L624.074 72.8824L625.723 47.1938L643.048 6.84907L600.689 23.3567ZM631.225 79.7124C631.225 79.7124 608.104 82.4871 589.483 95.1188C607.98 107.734 631.225 110.51 631.225 110.51C631.225 110.51 634.139 132.542 647.395 150.299C660.653 132.586 663.567 110.555 663.567 110.555C663.567 110.555 686.688 107.779 705.309 95.1634C686.812 82.5316 663.567 79.7556 663.567 79.7556C663.567 79.7556 660.653 57.7256 647.395 39.9683C634.139 57.6811 631.225 79.7124 631.225 79.7124ZM722.682 50.6014L721.141 24.9141L694.179 23.3567L651.851 6.84907L669.177 47.1938L670.796 72.8824L697.757 74.4249L740.085 90.9325L722.682 50.6014ZM694.103 166.836L721.064 165.368L722.606 139.68L739.932 99.3335L697.602 115.842L670.641 117.399L669.024 143.087L651.697 183.418L694.103 166.836ZM572.11 139.607L573.651 165.294L600.611 166.763L642.957 183.271L625.723 143.014L624.104 117.326L597.144 115.768L554.813 99.2606L572.11 139.607Z" fill="url(#paint6_linear_8_207)"/>
<path d="M547.985 250.2C563.323 232.091 566.576 207.299 566.576 207.299C566.576 207.299 592.519 204.2 611.526 189.674H683.266C702.273 204.273 728.216 207.299 728.216 207.299C728.216 207.299 731.485 232.032 746.807 250.142V286.61V318.496C731.485 336.59 728.216 361.324 728.216 361.324C728.216 361.324 702.273 364.423 683.266 378.948H611.526C592.519 364.349 566.576 361.324 566.576 361.324C566.576 361.324 563.323 336.59 547.985 318.496V286.61V250.2ZM600.689 212.63L573.728 214.187L572.186 239.875L554.813 280.206L597.112 263.698L624.074 262.156L625.723 236.468L643.048 196.122L600.689 212.63ZM631.225 268.985C631.225 268.985 608.104 271.761 589.483 284.392C607.98 297.008 631.225 299.784 631.225 299.784C631.225 299.784 634.139 321.815 647.395 339.572C660.653 321.859 663.567 299.828 663.567 299.828C663.567 299.828 686.688 297.052 705.309 284.436C686.812 271.805 663.567 269.029 663.567 269.029C663.567 269.029 660.653 246.999 647.395 229.242C634.139 246.955 631.225 268.985 631.225 268.985ZM722.682 239.875L721.141 214.187L694.179 212.63L651.851 196.122L669.177 236.468L670.796 262.156L697.757 263.698L740.085 280.206L722.682 239.875ZM694.103 356.11L721.064 354.641L722.606 328.953L739.932 288.607L697.602 305.116L670.641 306.673L669.024 332.36L651.697 372.691L694.103 356.11ZM572.11 328.88L573.651 354.567L600.611 356.036L642.957 372.545L625.723 332.287L624.104 306.599L597.144 305.042L554.813 288.534L572.11 328.88Z" fill="url(#paint7_linear_8_207)"/>
<path d="M349.164 60.9267C364.501 42.8172 367.755 18.026 367.755 18.026C367.755 18.026 393.697 14.9261 412.705 0.400934H484.445C503.452 15.0003 529.394 18.026 529.394 18.026C529.394 18.026 532.663 42.7591 547.985 60.8687V97.3362V129.222C532.663 147.317 529.394 172.05 529.394 172.05C529.394 172.05 503.452 175.149 484.445 189.675H412.705C393.697 175.076 367.755 172.05 367.755 172.05C367.755 172.05 364.501 147.317 349.164 129.222V97.3362V60.9267ZM401.868 23.3567L374.906 24.9141L373.365 50.6014L355.994 90.9325L398.291 74.4249L425.253 72.8824L426.902 47.1938L444.227 6.84907L401.868 23.3567ZM432.404 79.7124C432.404 79.7124 409.282 82.4871 390.661 95.1188C409.159 107.734 432.404 110.51 432.404 110.51C432.404 110.51 435.318 132.542 448.575 150.299C461.832 132.586 464.746 110.555 464.746 110.555C464.746 110.555 487.867 107.779 506.488 95.1634C487.99 82.5316 464.746 79.7556 464.746 79.7556C464.746 79.7556 461.832 57.7256 448.575 39.9683C435.318 57.6811 432.404 79.7124 432.404 79.7124ZM523.861 50.6014L522.32 24.9141L495.358 23.3567L453.029 6.84907L470.356 47.1938L471.975 72.8824L498.935 74.4249L541.264 90.9325L523.861 50.6014ZM495.281 166.836L522.243 165.368L523.784 139.68L541.111 99.3335L498.78 115.842L471.82 117.399L470.202 143.087L452.876 183.418L495.281 166.836ZM373.288 139.607L374.83 165.294L401.79 166.763L444.135 183.271L426.902 143.014L425.283 117.326L398.322 115.768L355.994 99.2606L373.288 139.607Z" fill="url(#paint8_linear_8_207)"/>
<path d="M349.164 250.2C364.501 232.091 367.755 207.299 367.755 207.299C367.755 207.299 393.697 204.2 412.705 189.674H484.445C503.452 204.273 529.394 207.299 529.394 207.299C529.394 207.299 532.663 232.032 547.985 250.142V286.61V318.496C532.663 336.59 529.394 361.324 529.394 361.324C529.394 361.324 503.452 364.423 484.445 378.948H412.705C393.697 364.349 367.755 361.324 367.755 361.324C367.755 361.324 364.501 336.59 349.164 318.496V286.61V250.2ZM401.868 212.63L374.906 214.187L373.365 239.875L355.994 280.206L398.291 263.698L425.253 262.156L426.902 236.468L444.227 196.122L401.868 212.63ZM432.404 268.985C432.404 268.985 409.282 271.761 390.661 284.392C409.159 297.008 432.404 299.784 432.404 299.784C432.404 299.784 435.318 321.815 448.575 339.572C461.832 321.859 464.746 299.828 464.746 299.828C464.746 299.828 487.867 297.052 506.488 284.436C487.99 271.805 464.746 269.029 464.746 269.029C464.746 269.029 461.832 246.999 448.575 229.242C435.318 246.955 432.404 268.985 432.404 268.985ZM523.861 239.875L522.32 214.187L495.358 212.63L453.029 196.122L470.356 236.468L471.975 262.156L498.935 263.698L541.264 280.206L523.861 239.875ZM495.281 356.11L522.243 354.641L523.784 328.953L541.111 288.607L498.78 305.116L471.82 306.673L470.202 332.36L452.876 372.691L495.281 356.11ZM373.288 328.88L374.83 354.567L401.79 356.036L444.135 372.545L426.902 332.287L425.283 306.599L398.322 305.042L355.994 288.534L373.288 328.88Z" fill="url(#paint9_linear_8_207)"/>
<path d="M150.343 60.9267C165.68 42.8172 168.934 18.026 168.934 18.026C168.934 18.026 194.876 14.9261 213.883 0.400934H285.623C304.631 15.0003 330.573 18.026 330.573 18.026C330.573 18.026 333.842 42.7591 349.164 60.8687V97.3362V129.222C333.842 147.317 330.573 172.05 330.573 172.05C330.573 172.05 304.631 175.149 285.623 189.675H213.883C194.876 175.076 168.934 172.05 168.934 172.05C168.934 172.05 165.68 147.317 150.343 129.222V97.3362V60.9267ZM203.047 23.3567L176.085 24.9141L174.544 50.6014L157.171 90.9325L199.47 74.4249L226.431 72.8824L228.079 47.1938L245.406 6.84907L203.047 23.3567ZM233.583 79.7124C233.583 79.7124 210.461 82.4871 191.84 95.1188C210.338 107.734 233.583 110.51 233.583 110.51C233.583 110.51 236.497 132.542 249.753 150.299C263.01 132.586 265.924 110.555 265.924 110.555C265.924 110.555 289.046 107.779 307.667 95.1634C289.169 82.5316 265.924 79.7556 265.924 79.7556C265.924 79.7556 263.01 57.7256 249.753 39.9683C236.497 57.6811 233.583 79.7124 233.583 79.7124ZM325.04 50.6014L323.498 24.9141L296.537 23.3567L254.208 6.84907L271.534 47.1938L273.154 72.8824L300.114 74.4249L342.443 90.9325L325.04 50.6014ZM296.46 166.836L323.422 165.368L324.963 139.68L342.289 99.3335L299.959 115.842L272.999 117.399L271.381 143.087L254.055 183.418L296.46 166.836ZM174.467 139.607L176.008 165.294L202.969 166.763L245.314 183.271L228.079 143.014L226.461 117.326L199.501 115.768L157.171 99.2606L174.467 139.607Z" fill="url(#paint10_linear_8_207)"/>
<path d="M150.343 250.2C165.68 232.091 168.934 207.299 168.934 207.299C168.934 207.299 194.876 204.2 213.883 189.674H285.623C304.631 204.273 330.573 207.299 330.573 207.299C330.573 207.299 333.842 232.032 349.164 250.142V286.61V318.496C333.842 336.59 330.573 361.324 330.573 361.324C330.573 361.324 304.631 364.423 285.623 378.948H213.883C194.876 364.349 168.934 361.324 168.934 361.324C168.934 361.324 165.68 336.59 150.343 318.496V286.61V250.2ZM203.047 212.63L176.085 214.187L174.544 239.875L157.171 280.206L199.47 263.698L226.431 262.156L228.079 236.468L245.406 196.122L203.047 212.63ZM233.583 268.985C233.583 268.985 210.461 271.761 191.84 284.392C210.338 297.008 233.583 299.784 233.583 299.784C233.583 299.784 236.497 321.815 249.753 339.572C263.01 321.859 265.924 299.828 265.924 299.828C265.924 299.828 289.046 297.052 307.667 284.436C289.169 271.805 265.924 269.029 265.924 269.029C265.924 269.029 263.01 246.999 249.753 229.242C236.497 246.955 233.583 268.985 233.583 268.985ZM325.04 239.875L323.498 214.187L296.537 212.63L254.208 196.122L271.534 236.468L273.154 262.156L300.114 263.698L342.443 280.206L325.04 239.875ZM296.46 356.11L323.422 354.641L324.963 328.953L342.289 288.607L299.959 305.116L272.999 306.673L271.381 332.36L254.055 372.691L296.46 356.11ZM174.467 328.88L176.008 354.567L202.969 356.036L245.314 372.545L228.079 332.287L226.461 306.599L199.501 305.042L157.171 288.534L174.467 328.88Z" fill="url(#paint11_linear_8_207)"/>
<path d="M-48.4853 60.9267C-33.1413 42.8172 -29.8944 18.026 -29.8944 18.026C-29.8944 18.026 -3.94525 14.9261 15.0621 0.400934H86.8022C105.81 15.0003 131.752 18.026 131.752 18.026C131.752 18.026 135.021 42.7591 150.343 60.8687V97.3362V129.222C135.021 147.317 131.752 172.05 131.752 172.05C131.752 172.05 105.81 175.149 86.8022 189.675H15.0621C-3.94525 175.076 -29.8944 172.05 -29.8944 172.05C-29.8944 172.05 -33.1413 147.317 -48.4853 129.222V97.3362V60.9267ZM4.22538 23.3567L-22.7362 24.9141L-24.2775 50.6014L-41.649 90.9325L0.648365 74.4249L27.61 72.8824L29.2581 47.1938L46.5844 6.84907L4.22538 23.3567ZM34.7613 79.7124C34.7613 79.7124 11.6398 82.4871 -6.98121 95.1188C11.5165 107.734 34.7613 110.51 34.7613 110.51C34.7613 110.51 37.6753 132.542 50.9328 150.299C64.1889 132.586 67.1016 110.555 67.1016 110.555C67.1016 110.555 90.2245 107.779 108.846 95.1634C90.3478 82.5316 67.1016 79.7556 67.1016 79.7556C67.1016 79.7556 64.1889 57.7256 50.9328 39.9683C37.6753 57.6811 34.7613 79.7124 34.7613 79.7124ZM126.218 50.6014L124.677 24.9141L97.7156 23.3567L55.3867 6.84907L72.7131 47.1938L74.3324 72.8824L101.293 74.4249L143.622 90.9325L126.218 50.6014ZM97.6389 166.836L124.601 165.368L126.142 139.68L143.468 99.3335L101.138 115.842L74.1777 117.399L72.5597 143.087L55.2333 183.418L97.6389 166.836ZM-24.3541 139.607L-22.8129 165.294L4.14737 166.763L46.4927 183.271L29.2581 143.014L27.6401 117.326L0.679889 115.768L-41.649 99.2606L-24.3541 139.607Z" fill="url(#paint12_linear_8_207)"/>
<path d="M-48.4853 250.2C-33.1413 232.091 -29.8944 207.299 -29.8944 207.299C-29.8944 207.299 -3.94525 204.2 15.0621 189.674H86.8022C105.81 204.273 131.752 207.299 131.752 207.299C131.752 207.299 135.021 232.032 150.343 250.142V286.61V318.496C135.021 336.59 131.752 361.324 131.752 361.324C131.752 361.324 105.81 364.423 86.8022 378.948H15.0621C-3.94525 364.349 -29.8944 361.324 -29.8944 361.324C-29.8944 361.324 -33.1413 336.59 -48.4853 318.496V286.61V250.2ZM4.22538 212.63L-22.7362 214.187L-24.2775 239.875L-41.649 280.206L0.648365 263.698L27.61 262.156L29.2581 236.468L46.5844 196.122L4.22538 212.63ZM34.7613 268.985C34.7613 268.985 11.6398 271.761 -6.98121 284.392C11.5165 297.008 34.7613 299.784 34.7613 299.784C34.7613 299.784 37.6753 321.815 50.9328 339.572C64.1889 321.859 67.1016 299.828 67.1016 299.828C67.1016 299.828 90.2245 297.052 108.846 284.436C90.3478 271.805 67.1016 269.029 67.1016 269.029C67.1016 269.029 64.1889 246.999 50.9328 229.242C37.6753 246.955 34.7613 268.985 34.7613 268.985ZM126.218 239.875L124.677 214.187L97.7156 212.63L55.3867 196.122L72.7131 236.468L74.3324 262.156L101.293 263.698L143.622 280.206L126.218 239.875ZM97.6389 356.11L124.601 354.641L126.142 328.953L143.468 288.607L101.138 305.116L74.1777 306.673L72.5597 332.36L55.2333 372.691L97.6389 356.11ZM-24.3541 328.88L-22.8129 354.567L4.14737 356.036L46.4927 372.545L29.2581 332.287L27.6401 306.599L0.679889 305.042L-41.649 288.534L-24.3541 328.88Z" fill="url(#paint13_linear_8_207)"/>
</g>
<defs>
<linearGradient id="paint0_linear_8_207" x1="286.969" y1="0.403637" x2="92.5176" y2="468.577" gradientUnits="userSpaceOnUse">
<stop stop-color="white" stop-opacity="0"/>
<stop offset="1" stop-color="white" stop-opacity="0.1"/>
</linearGradient>
<linearGradient id="paint1_linear_8_207" x1="286.969" y1="0.403213" x2="92.5176" y2="468.577" gradientUnits="userSpaceOnUse">
<stop stop-color="white" stop-opacity="0"/>
<stop offset="1" stop-color="white" stop-opacity="0.1"/>
</linearGradient>
<linearGradient id="paint2_linear_8_207" x1="286.969" y1="0.403642" x2="92.5175" y2="468.577" gradientUnits="userSpaceOnUse">
<stop stop-color="white" stop-opacity="0"/>
<stop offset="1" stop-color="white" stop-opacity="0.1"/>
</linearGradient>
<linearGradient id="paint3_linear_8_207" x1="286.969" y1="0.403221" x2="92.5175" y2="468.577" gradientUnits="userSpaceOnUse">
<stop stop-color="white" stop-opacity="0"/>
<stop offset="1" stop-color="white" stop-opacity="0.1"/>
</linearGradient>
<linearGradient id="paint4_linear_8_207" x1="286.969" y1="0.403644" x2="92.5175" y2="468.577" gradientUnits="userSpaceOnUse">
<stop stop-color="white" stop-opacity="0"/>
<stop offset="1" stop-color="white" stop-opacity="0.1"/>
</linearGradient>
<linearGradient id="paint5_linear_8_207" x1="286.969" y1="0.40322" x2="92.5175" y2="468.577" gradientUnits="userSpaceOnUse">
<stop stop-color="white" stop-opacity="0"/>
<stop offset="1" stop-color="white" stop-opacity="0.1"/>
</linearGradient>
<linearGradient id="paint6_linear_8_207" x1="286.969" y1="0.403643" x2="92.5174" y2="468.577" gradientUnits="userSpaceOnUse">
<stop stop-color="white" stop-opacity="0"/>
<stop offset="1" stop-color="white" stop-opacity="0.1"/>
</linearGradient>
<linearGradient id="paint7_linear_8_207" x1="286.969" y1="0.403226" x2="92.5174" y2="468.577" gradientUnits="userSpaceOnUse">
<stop stop-color="white" stop-opacity="0"/>
<stop offset="1" stop-color="white" stop-opacity="0.1"/>
</linearGradient>
<linearGradient id="paint8_linear_8_207" x1="286.969" y1="0.403642" x2="92.5174" y2="468.577" gradientUnits="userSpaceOnUse">
<stop stop-color="white" stop-opacity="0"/>
<stop offset="1" stop-color="white" stop-opacity="0.1"/>
</linearGradient>
<linearGradient id="paint9_linear_8_207" x1="286.969" y1="0.40322" x2="92.5174" y2="468.577" gradientUnits="userSpaceOnUse">
<stop stop-color="white" stop-opacity="0"/>
<stop offset="1" stop-color="white" stop-opacity="0.1"/>
</linearGradient>
<linearGradient id="paint10_linear_8_207" x1="286.969" y1="0.40365" x2="92.5173" y2="468.577" gradientUnits="userSpaceOnUse">
<stop stop-color="white" stop-opacity="0"/>
<stop offset="1" stop-color="white" stop-opacity="0.1"/>
</linearGradient>
<linearGradient id="paint11_linear_8_207" x1="286.969" y1="0.403222" x2="92.5173" y2="468.577" gradientUnits="userSpaceOnUse">
<stop stop-color="white" stop-opacity="0"/>
<stop offset="1" stop-color="white" stop-opacity="0.1"/>
</linearGradient>
<linearGradient id="paint12_linear_8_207" x1="286.969" y1="0.403653" x2="92.5173" y2="468.577" gradientUnits="userSpaceOnUse">
<stop stop-color="white" stop-opacity="0"/>
<stop offset="1" stop-color="white" stop-opacity="0.1"/>
</linearGradient>
<linearGradient id="paint13_linear_8_207" x1="286.969" y1="0.403237" x2="92.5173" y2="468.577" gradientUnits="userSpaceOnUse">
<stop stop-color="white" stop-opacity="0"/>
<stop offset="1" stop-color="white" stop-opacity="0.1"/>
</linearGradient>
<clipPath id="clip0_8_207">
<rect width="1343.97" height="299.599" fill="white" transform="matrix(-1 0 0 -1 1343.96 300)"/>
</clipPath>
</defs>
</svg>
