<svg width="16" height="16" viewBox="0 0 16 16" fill="none" xmlns="http://www.w3.org/2000/svg">
<path d="M11.1922 4.90312C11.489 4.60781 11.489 4.12656 11.1922 3.83125L10.1 2.73906L10.1016 2.74062C9.81249 2.45156 9.31561 1.95469 8.61249 1.25312C8.28124 0.929686 7.7453 0.932811 7.41717 1.26094L1.26405 7.40937C1.18533 7.48756 1.12285 7.58056 1.08021 7.68299C1.03757 7.78543 1.01562 7.89529 1.01562 8.00625C1.01562 8.11721 1.03757 8.22707 1.08021 8.3295C1.12285 8.43194 1.18533 8.52493 1.26405 8.60312L7.41561 14.75C7.57421 14.9083 7.78916 14.9973 8.01327 14.9973C8.23737 14.9973 8.45232 14.9083 8.61092 14.75L11.1906 12.1719C11.4875 11.8766 11.4875 11.3953 11.1906 11.1C11.048 10.9581 10.855 10.8785 10.6539 10.8785C10.4527 10.8785 10.2598 10.9581 10.1172 11.1L8.16405 13.0562C8.0828 13.1375 7.95624 13.1375 7.87499 13.0562L2.96092 8.14687C2.87967 8.06562 2.87967 7.93906 2.96092 7.85781L7.87342 2.94844C7.87967 2.94219 7.88749 2.9375 7.89374 2.93125C7.97499 2.86719 8.08749 2.87344 8.16249 2.94844L10.1187 4.90312C10.4156 5.2 10.8969 5.2 11.1922 4.90312ZM6.38436 8.0375C6.38436 8.47759 6.55935 8.89966 6.87084 9.21085C7.18233 9.52205 7.60479 9.69687 8.0453 9.69687C8.48581 9.69687 8.90827 9.52205 9.21976 9.21085C9.53125 8.89966 9.70624 8.47759 9.70624 8.0375C9.70624 7.5974 9.53125 7.17534 9.21976 6.86414C8.90827 6.55295 8.48581 6.37812 8.0453 6.37812C7.60479 6.37812 7.18233 6.55295 6.87084 6.86414C6.55935 7.17534 6.38436 7.5974 6.38436 8.0375ZM14.7625 7.43437L12.8422 5.52344C12.5453 5.22812 12.0641 5.22812 11.7687 5.525C11.6982 5.59527 11.6422 5.67878 11.6039 5.77075C11.5657 5.86273 11.546 5.96134 11.546 6.06094C11.546 6.16053 11.5657 6.25915 11.6039 6.35112C11.6422 6.44309 11.6982 6.52661 11.7687 6.59687L13.0656 7.89219C13.1469 7.97344 13.1469 8.1 13.0656 8.18125L11.7875 9.45781C11.7169 9.52808 11.6609 9.6116 11.6227 9.70357C11.5845 9.79554 11.5648 9.89415 11.5648 9.99375C11.5648 10.0933 11.5845 10.192 11.6227 10.2839C11.6609 10.3759 11.7169 10.4594 11.7875 10.5297C11.9301 10.6716 12.1231 10.7512 12.3242 10.7512C12.5254 10.7512 12.7183 10.6716 12.8609 10.5297L14.7641 8.62812C14.8425 8.54974 14.9047 8.45663 14.9471 8.35415C14.9895 8.25167 15.0113 8.14183 15.0111 8.03092C15.011 7.92002 14.9889 7.81024 14.9463 7.70787C14.9036 7.6055 14.8411 7.51256 14.7625 7.43437Z" fill="white"/>
</svg>
